<svg xmlns="http://www.w3.org/2000/svg" xmlns:xlink="http://www.w3.org/1999/xlink" width="1000" height="300" version="1.1" viewBox="-11 -12 80 24"><defs><clipPath id="shape"><path d="M0,9 l 60,0 a 6,9,0 0,0 0,-18 l -60,0 a 6,9,0 0,1 0,18"/></clipPath><linearGradient id="shine" x1="0" x2="0" y1="0" y2="1"><stop offset="0" stop-color="#fff" stop-opacity="0"/><stop offset=".1" stop-color="#fff" stop-opacity=".2"/><stop offset=".12" stop-color="#fff" stop-opacity=".2"/><stop offset=".22" stop-color="#fff" stop-opacity="0"/><stop offset="1" stop-color="#000" stop-opacity="0"/></linearGradient><linearGradient id="shadow" x1="0" x2="0" y1="0" y2="1"><stop offset="0" stop-color="#000" stop-opacity=".2"/><stop offset=".2" stop-color="#000" stop-opacity="0"/><stop offset=".8" stop-color="#000" stop-opacity="0"/><stop offset="1" stop-color="#000" stop-opacity=".4"/></linearGradient></defs><path fill="orange" d="M0,9 l 60,0 a 6,9,0 0,0 0,-18 l -60,0 a 6,9,0 0,0 0,18"/><line x1="0" x2="70" y1="0" y2="0" stroke="orange" stroke-width="5" clip-path="url(#shape)"/><rect width="80" height="18" x="-5" y="-9" fill="url(#shadow)" clip-path="url(#shape)"/><rect width="80" height="18" x="-5" y="-9" fill="url(#shine)" clip-path="url(#shape)"/><ellipse cx="0" cy="0" fill-opacity=".2" stroke="#000" stroke-width="1" rx="6" ry="9"/><path fill="none" stroke="#000" stroke-width="1" d="M0,9 l 60,0 a 6,9,0 0,0 0,-18 l -60,0 a 6,9,0 0,0 0,18"/><path fill="#f4a460" stroke="maroon" stroke-width="1" d="M-6,6 l 5,0 a 4,6,0 0,0 0,-12 l -5,0 a 4,6,0 0,0 0,12"/><path fill="url(#shadow)" stroke="maroon" stroke-width="1" d="M-6,6 l 5,0 a 4,6,0 0,0 0,-12 l -5,0 a 4,6,0 0,1 0,12"/><path fill="url(#shine)" stroke="maroon" stroke-width="1" d="M-6,6 l 5,0 a 4,6,0 0,0 0,-12 l -5,0 a 4,6,0 0,1 0,12"/></svg>